<svg width="25" height="25" viewBox="0 0 25 25" fill="none" xmlns="http://www.w3.org/2000/svg">
<path d="M25 18.7504C25 19.4871 24.7073 20.1937 24.1864 20.7146C23.6655 21.2356 22.9589 21.5282 22.2222 21.5282H2.77778C2.04107 21.5282 1.33453 21.2356 0.813592 20.7146C0.292658 20.1937 0 19.4871 0 18.7504V6.25043C0 5.51372 0.292658 4.80718 0.813592 4.28625C1.33453 3.76531 2.04107 3.47266 2.77778 3.47266H22.2222C22.9589 3.47266 23.6655 3.76531 24.1864 4.28625C24.7073 4.80718 25 5.51372 25 6.25043V18.7504Z" fill="#00AFCA"/>
<path d="M13.2181 13.4577C14.3169 13.4577 15.2077 12.5669 15.2077 11.4681C15.2077 10.3693 14.3169 9.47852 13.2181 9.47852C12.1193 9.47852 11.2285 10.3693 11.2285 11.4681C11.2285 12.5669 12.1193 13.4577 13.2181 13.4577Z" fill="#FFCC4D"/>
<path d="M13.22 9.32778C13.3381 9.32639 13.3811 9.25208 13.3811 9.16389C13.3811 9.04583 13.22 8.125 13.22 8.125C13.22 8.125 13.0561 9.04583 13.0561 9.16389C13.0561 9.25208 13.1006 9.32778 13.22 9.32778ZM13.22 13.6181C13.1006 13.6188 13.0561 13.6931 13.0561 13.7812C13.0561 13.9 13.22 14.8083 13.22 14.8083C13.22 14.8083 13.3811 13.8993 13.3811 13.7812C13.3818 13.6937 13.3381 13.6181 13.22 13.6181ZM12.6638 13.534C12.5492 13.5049 12.4888 13.5653 12.4658 13.6507C12.4353 13.7646 12.3526 14.6965 12.3526 14.6965C12.3526 14.6965 12.7492 13.8486 12.7797 13.7347C12.8033 13.6493 12.779 13.5646 12.6638 13.534ZM13.7749 9.38958C13.8901 9.42014 13.9526 9.35903 13.9756 9.27431C14.0061 9.15972 14.0825 8.23958 14.0825 8.23958C14.0825 8.23958 13.6922 9.075 13.661 9.19028C13.6381 9.275 13.6603 9.35903 13.7749 9.38958ZM12.1478 13.3187C12.0443 13.2611 11.97 13.3035 11.9263 13.3806C11.8672 13.4826 11.5464 14.3611 11.5464 14.3611C11.5464 14.3611 12.1485 13.6451 12.2075 13.5431C12.252 13.466 12.2513 13.3785 12.1478 13.3187ZM14.2929 9.60278C14.3964 9.6625 14.4728 9.61944 14.5165 9.54306C14.5763 9.44028 14.8881 8.57222 14.8881 8.57222C14.8881 8.57222 14.2936 9.27847 14.2339 9.38056C14.1908 9.45694 14.1908 9.54375 14.2929 9.60278ZM11.7047 12.9792C11.62 12.8965 11.5374 12.9181 11.4749 12.9806C11.3915 13.0646 10.854 13.8299 10.854 13.8299C10.854 13.8299 11.6214 13.2937 11.7047 13.2111C11.7672 13.1486 11.7895 13.0625 11.7047 12.9792ZM14.7388 9.94444C14.8235 10.0285 14.9075 10.0069 14.97 9.94444C15.054 9.86111 15.5804 9.10208 15.5804 9.10208C15.5804 9.10208 14.8242 9.63125 14.7408 9.71528C14.6783 9.77778 14.6554 9.86111 14.7388 9.94444ZM11.3658 12.5354C11.3054 12.434 11.22 12.434 11.1429 12.4778C11.0401 12.5368 10.3235 13.1368 10.3235 13.1368C10.3235 13.1368 11.2033 12.8187 11.3054 12.7597C11.3825 12.7153 11.4256 12.6389 11.3658 12.5354ZM15.0811 10.3903C15.1415 10.4937 15.229 10.4944 15.3047 10.4507C15.4075 10.391 16.1124 9.79514 16.1124 9.79514C16.1124 9.79514 15.245 10.1097 15.1422 10.1687C15.0658 10.2132 15.0228 10.2875 15.0811 10.3903ZM11.1526 12.0194C11.1207 11.9056 11.0374 11.8833 10.952 11.9056C10.8381 11.9361 9.99015 12.3306 9.99015 12.3306C9.99015 12.3306 10.9221 12.2507 11.036 12.2201C11.1214 12.1965 11.1832 12.1347 11.1526 12.0194ZM15.2957 10.9083C15.3276 11.0236 15.411 11.0472 15.4964 11.0243C15.611 10.9937 16.4464 10.6007 16.4464 10.6007C16.4464 10.6007 15.527 10.6799 15.4117 10.7104C15.327 10.7326 15.2651 10.7944 15.2957 10.9083ZM11.0797 11.466C11.0783 11.3479 11.004 11.3049 10.9158 11.3049C10.7978 11.3049 9.87695 11.466 9.87695 11.466C9.87695 11.466 10.7978 11.6299 10.9158 11.6299C11.004 11.6299 11.0797 11.5854 11.0797 11.466ZM15.37 11.466C15.3707 11.5854 15.445 11.6299 15.5332 11.6299C15.652 11.6299 16.5603 11.466 16.5603 11.466C16.5603 11.466 15.6513 11.3049 15.5332 11.3049C15.445 11.3042 15.37 11.3479 15.37 11.466ZM11.1526 10.9125C11.1818 10.7979 11.1214 10.7375 11.036 10.7146C10.9221 10.684 9.99015 10.6014 9.99015 10.6014C9.99015 10.6014 10.8381 10.9979 10.952 11.0285C11.0374 11.0514 11.1221 11.0278 11.1526 10.9125ZM15.2964 12.0229C15.2658 12.1382 15.327 12.2007 15.4117 12.2236C15.5263 12.2542 16.4464 12.3306 16.4464 12.3306C16.4464 12.3306 15.611 11.9396 15.4957 11.909C15.411 11.8868 15.327 11.9083 15.2964 12.0229ZM11.3665 10.3965C11.4242 10.2937 11.3818 10.2188 11.3047 10.175C11.2026 10.116 10.3242 9.79514 10.3242 9.79514C10.3242 9.79514 11.0401 10.3972 11.1422 10.4562C11.2193 10.5007 11.3068 10.4993 11.3665 10.3965ZM15.0825 12.5417C15.0228 12.6451 15.0658 12.7215 15.1422 12.7653C15.2443 12.825 16.1131 13.1368 16.1131 13.1368C16.1131 13.1368 15.4068 12.5431 15.3047 12.4833C15.2283 12.4396 15.1415 12.4396 15.0825 12.5417ZM11.7061 9.95347C11.7888 9.86875 11.7672 9.78611 11.7047 9.72361C11.6207 9.64028 10.8554 9.10278 10.8554 9.10278C10.8554 9.10278 11.3915 9.87014 11.4742 9.95347C11.5367 10.016 11.6221 10.0382 11.7061 9.95347ZM14.7408 12.9875C14.6568 13.0722 14.6783 13.1569 14.7408 13.2187C14.8242 13.3028 15.5832 13.8292 15.5832 13.8292C15.5832 13.8292 15.054 13.0729 14.97 12.9889C14.9075 12.9264 14.8242 12.9035 14.7408 12.9875ZM12.1506 9.61389C12.2513 9.55347 12.252 9.46806 12.2082 9.39097C12.1492 9.28889 11.5492 8.57153 11.5492 8.57153C11.5492 8.57153 11.8672 9.45139 11.9263 9.55347C11.97 9.63056 12.0471 9.67361 12.1506 9.61389ZM14.2957 13.3299C14.1929 13.3896 14.1915 13.4764 14.2353 13.5528C14.295 13.6556 14.8908 14.3604 14.8908 14.3604C14.8908 14.3604 14.5763 13.4924 14.5172 13.3896C14.4728 13.3139 14.3978 13.2701 14.2957 13.3299ZM12.6658 9.40069C12.7797 9.36875 12.802 9.28542 12.7797 9.2C12.7492 9.08611 12.3547 8.23819 12.3547 8.23819C12.3547 8.23819 12.4346 9.17014 12.4651 9.28403C12.4881 9.36944 12.5506 9.43125 12.6658 9.40069ZM13.777 13.5444C13.6617 13.5764 13.6381 13.6597 13.661 13.7451C13.6915 13.8597 14.0846 14.6951 14.0846 14.6951C14.0846 14.6951 14.0054 13.775 13.9749 13.6611C13.9526 13.5757 13.8908 13.5139 13.777 13.5444Z" fill="#FFCC4D"/>
<path d="M15.1704 16.421L15.1447 16.4322L15.1163 16.4363L15.0947 16.4405L15.0552 16.4322L15.0378 16.4252L15.0218 16.4176L15.0031 16.4058L14.9718 16.3835L14.9434 16.3606L14.9274 16.3495L14.9072 16.3412L14.8934 16.3377H14.8732L14.7947 16.5009L14.7788 16.5238L14.7635 16.5426L14.7475 16.5544L14.7336 16.5662L14.7135 16.5738H14.6947L14.6774 16.5662L14.6531 16.5544L14.6461 16.5426L14.6378 16.5308L14.6295 16.5155L14.6211 16.4974L14.61 16.4398L14.5871 16.4585L14.5656 16.4856L14.5225 16.5509L14.4968 16.5849L14.4697 16.6113L14.4552 16.6273L14.4364 16.6391L14.4177 16.6474L14.3947 16.6544H14.3836L14.3635 16.6585L14.3447 16.6544L14.3302 16.6474L14.2857 16.594L14.2357 16.5405L14.2017 16.594L14.1621 16.6391L14.1434 16.6579L14.126 16.6766L14.1072 16.6919L14.0718 16.7113L14.0531 16.7155H14.0343L14.0184 16.7113L14.0031 16.703L13.992 16.6912L13.9774 16.6731C13.9677 16.6449 13.9573 16.6168 13.9461 16.5891L13.942 16.5697L13.935 16.5551L13.9267 16.5474H13.9184L13.8156 16.7155L13.801 16.7301L13.7739 16.7419L13.7142 16.7565H13.6788L13.6517 16.7488L13.6434 16.7447L13.6322 16.7329L13.6295 16.7259V16.7106L13.6434 16.5426L13.6322 16.5467L13.6024 16.5613C13.575 16.5898 13.5484 16.619 13.5225 16.6488L13.4885 16.6912L13.4461 16.7266L13.4066 16.7565L13.3843 16.769L13.3385 16.7759L13.3197 16.7717L13.3114 16.769L13.3038 16.7606L13.2996 16.7488V16.737L13.3038 16.6884L13.3156 16.6113L13.3079 16.5662L13.292 16.5398L13.2691 16.5738L13.2316 16.6231C13.2003 16.6571 13.1684 16.6905 13.1357 16.7231C13.1175 16.7352 13.0996 16.748 13.0822 16.7613L13.0406 16.7759L13.0322 16.7717H13.0204L13.0121 16.7648L13.0093 16.7606L13.001 16.7488L12.9982 16.737V16.7224L12.9941 16.703L12.9982 16.5585C12.9288 16.6058 12.8586 16.6516 12.7878 16.6954L12.7614 16.7072L12.7316 16.7224C12.7031 16.7294 12.6753 16.7363 12.6475 16.7447H12.6197L12.5941 16.7412L12.5704 16.7329L12.5822 16.7023L12.6052 16.6488L12.6197 16.6266L12.6364 16.6037L12.651 16.5808L12.6899 16.5426L12.7322 16.5127L12.7809 16.4815L12.8309 16.4585L12.8885 16.4398L12.9454 16.4252L13.0753 16.4023L13.1399 16.394C13.3316 16.3829 13.5239 16.3815 13.7156 16.3829L13.926 16.371L13.9913 16.3634L14.1121 16.3405L14.1704 16.3245L14.2246 16.3023L14.2746 16.2794C14.301 16.2585 14.3281 16.2377 14.3559 16.2183L14.3927 16.1752L14.3531 16.0995L14.3843 16.0954L14.4142 16.0884L14.4454 16.0731L14.4711 16.0537L14.4822 16.0467L14.4947 16.0349L14.5031 16.0197L14.5114 16.0085L14.5142 15.9933V15.9669L14.5059 15.9516L14.5711 15.9398L14.6406 15.9322L14.7135 15.928H14.7892C14.8954 15.9322 15.001 15.9384 15.1066 15.9467C15.2663 15.9662 15.4267 15.9815 15.5871 15.9967L15.7309 16.0044V16.0572L15.7281 16.0808L15.7197 16.103L15.7128 16.1259L15.7045 16.1447L15.6934 16.1599C15.6802 16.1752 15.6656 16.1905 15.651 16.2051L15.617 16.2273L15.5802 16.2426L15.5434 16.2509L15.501 16.2585L15.4197 16.2509L15.3774 16.2391L15.3406 16.2197L15.301 16.2009L15.2711 16.1738L15.2413 16.144V16.2092C15.2357 16.2516 15.2288 16.2933 15.2225 16.3356L15.2079 16.3752L15.1996 16.3912L15.1885 16.4023L15.1802 16.4141L15.1704 16.421ZM12.1024 16.062L12.1892 16.1002C12.2065 16.0857 12.2244 16.0718 12.2427 16.0585L12.2767 16.0405L12.3072 16.021L12.4218 15.9752L12.5204 15.9294L12.5704 15.9106L12.6552 15.8655L12.6892 15.8419C12.7753 15.7856 12.8621 15.7301 12.9489 15.6752L13.0246 15.6217L13.0822 15.5759C13.1392 15.5245 13.1947 15.4724 13.2503 15.4197L13.2732 15.4044L13.2996 15.3891C13.3312 15.3731 13.3632 15.3578 13.3954 15.3433L13.46 15.321C13.5892 15.2856 13.7204 15.2579 13.8524 15.237C13.9871 15.221 14.1218 15.203 14.2566 15.1877L14.4357 15.1572C14.4802 15.1447 14.5246 15.1335 14.5697 15.1231L14.6156 15.0655L14.6892 14.9856L14.7392 14.9363L14.7947 14.8898L14.86 14.8405L14.9357 14.7905L15.051 14.7224C15.1336 14.6808 15.2156 14.6391 15.2975 14.596C15.4434 14.528 15.5871 14.4558 15.7302 14.3822L15.7982 14.3363L15.817 14.2787L15.8441 14.2224L15.8781 14.1648L15.9663 14.0467C16.0066 14.0037 16.0454 13.9606 16.0843 13.9162C16.1316 13.8704 16.1802 13.8259 16.2295 13.7829L16.3031 13.7224L16.3399 13.6954L16.3795 13.669C16.4072 13.653 16.435 13.6377 16.4635 13.6231L16.5059 13.6037L16.5468 13.5891L16.6364 13.5655L16.6809 13.5627L16.7232 13.5585L16.7677 13.5627L16.81 13.5697L16.8072 13.6155L16.7961 13.6606L16.7621 13.7565L16.7336 13.8058L16.6996 13.8558L16.6579 13.9085L16.6079 13.962L16.6475 13.9579L16.6816 13.9502L16.7086 13.9419L16.7343 13.9308L16.7843 13.9155L16.8559 13.9079L16.86 13.9349V13.9613L16.8559 13.9877L16.8489 14.0106L16.8378 14.0335L16.8218 14.0565L16.8072 14.0745L16.7885 14.094C16.736 14.1446 16.6825 14.1941 16.6281 14.2426L16.6732 14.2467C16.7066 14.2572 16.7399 14.2676 16.7739 14.2766L16.8107 14.2849L16.7663 14.3197C16.731 14.3432 16.6954 14.3661 16.6593 14.3884L16.5371 14.4572L16.476 14.4954L16.4149 14.5377L16.3579 14.5835L16.3836 14.587L16.4191 14.6023L16.4343 14.6065L16.4489 14.6141L16.4614 14.6176L16.4725 14.6141L16.3968 14.6565C16.3495 14.6787 16.3025 14.7016 16.2559 14.7252L16.1975 14.7599L16.1864 14.7717L16.1795 14.7835L16.1711 14.7947L16.1739 14.8099L16.1822 14.8217L16.1968 14.8329L16.2107 14.8454L16.2052 14.8599L16.1968 14.8724L16.1822 14.8835L16.1684 14.8954L16.1316 14.9134L16.0871 14.9329L16.0003 14.9634L15.9461 14.9905L16.0218 15.0662L15.9947 15.0926L15.9691 15.112L15.9461 15.1238L15.9191 15.1349L15.8663 15.1426H15.7913L15.7996 15.1773L15.8107 15.2113L15.8267 15.2884C15.7793 15.3252 15.7309 15.3607 15.6816 15.3947L15.5934 15.4516L15.4954 15.5085L15.4371 15.5356L15.3802 15.562C15.3159 15.587 15.2508 15.6099 15.185 15.6308L15.0371 15.662L14.9559 15.6738C15.0441 15.6766 15.1322 15.678 15.2204 15.6773L15.4371 15.6544L15.5322 15.6356L15.6163 15.6127C15.6718 15.594 15.726 15.5731 15.7802 15.5516L15.8857 15.503L15.9899 15.4454L16.0878 15.3835L16.192 15.3231L16.1295 15.2926L16.0697 15.2738L16.0413 15.2606C16.0197 15.2502 15.9982 15.2398 15.976 15.2308L15.9406 15.2113L15.9704 15.1891L16.0072 15.1738L16.0468 15.1592C16.0927 15.1481 16.1392 15.1377 16.185 15.128C16.2447 15.1217 16.3045 15.1141 16.3642 15.1058L16.4399 15.0981L16.4982 15.0835L16.5135 15.0752L16.5246 15.0634L16.5218 15.0592L16.5135 15.0516L16.5024 15.0474L16.4878 15.0405L16.4454 15.0322L16.3913 15.0245L16.3385 15.0204L16.2857 15.0127L16.2385 15.0009L16.21 14.9891L16.5829 14.9058L16.6482 14.8863C16.6767 14.8759 16.7045 14.8641 16.7322 14.8523L16.7691 14.8287L16.785 14.8141L16.7809 14.8106L16.7739 14.8023L16.7385 14.7947L16.6899 14.7905H16.6316C16.592 14.7877 16.5531 14.7849 16.5135 14.7835L16.4649 14.7752L16.4336 14.7676L16.4878 14.7454C16.5684 14.7204 16.6503 14.6974 16.7322 14.6759C16.7788 14.6599 16.826 14.644 16.8732 14.6301L16.9454 14.5995L16.9795 14.5808L17.0107 14.562L17.0218 14.5502L17.0336 14.5349L17.0447 14.5238L17.0489 14.512L17.0447 14.5002L17.0336 14.4919L17.0218 14.4891H16.9163L16.8663 14.4919H16.7982L16.7781 14.4891L16.7649 14.4808L16.7482 14.4731C16.8871 14.3815 17.0274 14.2905 17.1684 14.2016L17.2781 14.1252C17.3077 14.1007 17.3366 14.0755 17.3649 14.0495L17.3989 14.0113L17.4302 13.9731L17.4531 13.9315L17.4718 13.8898L17.4829 13.8433V13.794H17.4572L17.4302 13.7981L17.3704 13.8204C17.3175 13.8536 17.2638 13.8856 17.2093 13.9162L17.1795 13.9356L17.1441 13.9502L17.11 13.962L17.0788 13.9697L17.0489 13.9738H17.0135L16.9836 13.962L17.076 13.8933C17.1503 13.8301 17.2239 13.7662 17.2968 13.7023C17.3774 13.6253 17.4562 13.5463 17.5329 13.4655L17.6427 13.3433C17.6753 13.3002 17.7086 13.2585 17.7427 13.2169C17.7697 13.178 17.7968 13.1384 17.8225 13.0988L17.8309 13.0842L17.8336 13.0724L17.8309 13.0565L17.8267 13.0454L17.8225 13.0329L17.8114 13.0252L17.7996 13.0134L17.7885 13.0092L17.7739 13.0023L17.7572 12.9981H17.7274L17.7128 13.0023L17.6927 13.0051L17.6816 13.0176L17.6656 13.0294C17.5878 13.1072 17.5107 13.1863 17.435 13.2662L17.3427 13.3537C17.282 13.4065 17.2209 13.4589 17.1593 13.5106C17.1304 13.5303 17.101 13.5492 17.0711 13.5676L16.9871 13.6099L17.0128 13.587C17.0406 13.5606 17.0677 13.5342 17.0941 13.5072C17.192 13.3947 17.2857 13.278 17.376 13.1599L17.5524 12.912L17.5996 12.8287L17.6468 12.7523L17.685 12.6829L17.7149 12.6176L17.7336 12.5648L17.7378 12.5461V12.5155L17.7336 12.5037L17.7197 12.4808L17.7114 12.4731L17.6989 12.4697L17.6774 12.4572L17.6489 12.4495H17.5968L17.5822 12.4537L17.5711 12.4572L17.5552 12.4655L17.5441 12.4766L17.5128 12.5037C17.4786 12.5449 17.4454 12.5871 17.4135 12.6301C17.3371 12.7495 17.2566 12.8662 17.1732 12.9808L17.0767 13.0954L17.0281 13.1454L16.9753 13.1912L17.0434 13.0641L17.1503 12.8398L17.2197 12.6759L17.2496 12.5919L17.3024 12.4197C17.3156 12.3641 17.3274 12.3085 17.3378 12.2523C17.3427 12.2002 17.3468 12.1481 17.3503 12.0954L17.3447 12.0572L17.342 12.0231L17.3378 11.9877L17.3267 11.9433L17.3184 11.9308L17.2996 11.912L17.2739 11.9009L17.2454 11.8926H17.2197L17.1954 11.8967L17.1885 11.9009L17.1774 11.9037L17.1732 11.912C17.1045 12.1287 17.0524 12.3495 16.9927 12.5683C16.9704 12.6294 16.9482 12.6905 16.9246 12.7516L16.8677 12.862L16.8322 12.9113L16.8552 12.8016C16.8663 12.7377 16.876 12.6745 16.885 12.6106L16.901 12.4537L16.9052 12.3884C16.9031 12.3553 16.9003 12.3221 16.8968 12.2891L16.8899 12.2509L16.8788 12.2204L16.8628 12.1974L16.8545 12.1898L16.8316 12.1822L16.8204 12.178H16.8079L16.7968 12.1822L16.7656 12.1898L16.7357 12.2051C16.7121 12.3231 16.6836 12.4405 16.6517 12.5565C16.6062 12.7027 16.5529 12.8465 16.492 12.987C16.4508 13.0734 16.4073 13.1586 16.3614 13.2426L16.2774 13.3877L16.1864 13.5245C16.1254 13.6099 16.0622 13.6938 15.9968 13.7759C15.9329 13.8481 15.8677 13.919 15.8017 13.9898C15.7329 14.0572 15.6628 14.1238 15.5913 14.1891C15.5177 14.2502 15.4434 14.3092 15.3677 14.3676C15.2753 14.4343 15.1808 14.498 15.0843 14.5585L14.9163 14.6572L14.6489 14.7801L14.3739 14.8787L14.1461 14.9481L13.91 15.0009L13.792 15.0204L13.5503 15.0509L13.4281 15.0585L13.4163 15.0627L13.4045 15.0662L13.3816 15.0787L13.3559 15.0967C13.326 15.1228 13.2966 15.1494 13.2677 15.1766L13.2066 15.2384L12.985 15.4856L12.901 15.5697L12.8024 15.6454L12.7635 15.6717L12.7253 15.6954L12.642 15.7335C12.5128 15.7863 12.3816 15.8342 12.2517 15.8863L12.2177 15.9051L12.1871 15.921L12.1649 15.9356L12.1225 15.978L12.1107 15.9967L12.1024 16.0155L12.0996 16.0426V16.062" fill="#FFCC4D"/>
<path d="M13.5005 16.2319L13.5643 16.2402L13.5956 16.252L13.6025 16.2555V16.2597H13.5956L13.5873 16.2631L13.5262 16.275H13.4775L13.3178 16.2631L12.913 16.2555C12.806 16.2569 12.6991 16.2597 12.5921 16.2631C12.4977 16.2701 12.4039 16.2777 12.3095 16.2861L12.2366 16.2979L12.172 16.3125C12.1567 16.318 12.1421 16.3236 12.1268 16.3277L12.1074 16.3361L12.0921 16.3479L12.0991 16.309L12.1157 16.2701L12.0623 16.2854L12.0164 16.3083L11.9984 16.3201L11.9824 16.3354L11.9706 16.3534L11.9678 16.3729L11.9567 16.3465L11.9484 16.3229C11.9463 16.3063 11.9435 16.2899 11.94 16.2736C11.9442 16.2534 11.9484 16.2333 11.9511 16.2131L11.9637 16.1937L11.9706 16.1784L11.9866 16.1604L12.0171 16.1298L12.0588 16.1027L12.106 16.0763C12.1309 16.0909 12.1575 16.1023 12.1852 16.1104C12.2125 16.1128 12.24 16.1102 12.2664 16.1027C12.3088 16.1402 12.4185 16.1326 12.4338 16.0645C12.4397 16.0394 12.4397 16.0133 12.4338 15.9882L12.4796 15.9847L12.5331 15.9763L12.6512 15.9458L12.713 15.934L12.7699 15.9194L12.8234 15.9118L12.8685 15.9076L12.8498 15.9236L12.7505 15.9993L12.713 16.0256L12.7616 16.0382L12.8039 16.0458L12.7137 16.1486L12.69 16.1791L12.7199 16.1909L12.7505 16.1993L12.7852 16.2069H12.8539L12.922 16.1916L12.9491 16.1757L12.9803 16.1916L13.0109 16.2034C13.0303 16.209 13.0505 16.2145 13.0706 16.2187C13.1178 16.2236 13.165 16.2291 13.213 16.2333H13.5005V16.2319ZM13.1525 15.0722L13.1185 15.1409L13.0796 15.2291C13.0596 15.265 13.0409 15.3016 13.0234 15.3388L13.0039 15.3583L12.9588 15.3201L12.9088 15.2854L12.8553 15.2583L12.7991 15.2361L12.6762 15.2048L12.6157 15.1937C12.5497 15.186 12.4835 15.1798 12.4171 15.175C12.3293 15.1736 12.2415 15.1694 12.1539 15.1625L12.0317 15.1479L11.963 15.1361L11.8984 15.1215L11.8303 15.0979L11.7727 15.068L11.7303 15.0402L11.6428 14.9757C11.515 14.8555 11.3887 14.734 11.2574 14.6166L11.1817 14.5638L11.147 14.5486L11.1109 14.5375L11.0463 14.5229C11.0086 14.5094 10.9706 14.4967 10.9324 14.4847C10.8968 14.4675 10.861 14.4511 10.8248 14.4354C10.7618 14.3964 10.7008 14.3542 10.6421 14.309L10.6039 14.2736L10.5282 14.1979L10.4553 14.118C10.3352 13.9715 10.222 13.8201 10.1046 13.6715C10.0485 13.6119 9.99132 13.5533 9.93309 13.4958L9.88379 13.4507L9.83379 13.409L9.72407 13.3291L9.71296 13.3326L9.70046 13.3444L9.68865 13.3597C9.68171 13.377 9.67615 13.3951 9.67059 13.4132L9.66643 13.4284L9.63865 13.4159L9.61573 13.4041L9.58796 13.3923L9.56504 13.3847H9.51573L9.48865 13.3923L9.46226 13.4041C9.4831 13.4305 9.50323 13.4569 9.52268 13.484L9.55671 13.5375L9.61851 13.6555L9.64073 13.7131L9.64907 13.7437L9.6574 13.7666L9.66087 13.793V13.8152H9.45532L9.48518 13.8611C9.5081 13.8923 9.5324 13.9229 9.55671 13.9527L9.6831 14.0791L9.72546 14.1131L9.76434 14.1402C9.7313 14.1437 9.6982 14.1465 9.66504 14.1486L9.56504 14.1597L9.59907 14.1909C9.62893 14.2118 9.65809 14.2333 9.68726 14.2555L9.73657 14.2895L9.78657 14.3201L9.83587 14.3472L9.88171 14.3625L9.92407 14.3736L9.9581 14.3812L9.96921 14.3854L9.97754 14.3937L9.98032 14.3972V14.4118L9.96921 14.443L9.96643 14.4652L9.96157 14.4805V14.4916L9.96643 14.5111L9.96921 14.5263L9.97754 14.5333L9.98865 14.5416L10.0032 14.5493L10.0227 14.5534L10.0616 14.5687L10.0803 14.5757L10.0956 14.5875L10.0991 14.5916V14.5993L10.0956 14.6034L10.065 14.6257L10.0498 14.6409L10.0345 14.6597V14.6757L10.031 14.6909L10.0387 14.7319L10.172 14.7777L10.2025 14.7847L10.2331 14.7972L10.256 14.809L10.2755 14.8208L10.1491 14.9201L10.1831 14.9507L10.2255 14.9736L10.2789 15C10.3171 15.0138 10.3553 15.0263 10.3942 15.0388L10.4512 15.05L10.5012 15.0618H10.5463L10.5039 15.0923L10.4505 15.1263L10.3935 15.1576L10.3512 15.1881L10.3893 15.2145C10.5053 15.2743 10.6241 15.3298 10.7449 15.3791C10.956 15.4652 11.172 15.5402 11.3893 15.6076C11.438 15.6194 11.4859 15.6319 11.5338 15.6458L11.5949 15.6576L11.472 15.6458C11.3956 15.6359 11.3194 15.6243 11.2435 15.6111L11.1366 15.5882L10.9262 15.5277L10.8275 15.493C10.5637 15.3902 10.306 15.2722 10.0414 15.1722L10.0609 15.1611L10.1143 15.1416L10.1484 15.134C10.1949 15.1201 10.24 15.1048 10.2859 15.0882C10.1949 15.0744 10.1044 15.0582 10.0143 15.0395C9.96768 15.0244 9.92067 15.0102 9.87337 14.9972L9.84629 14.9854L9.82337 14.9736L9.80462 14.9611L9.79212 14.95V14.9465L9.79629 14.9423L9.80809 14.9381L9.81921 14.9305L9.84976 14.9187L9.9831 14.8798L10.0602 14.8534C9.94976 14.8326 9.83865 14.8138 9.72754 14.7965L9.67407 14.784L9.63171 14.7694L9.61643 14.7611L9.60184 14.7493L9.58934 14.7423L9.58171 14.7298L9.59351 14.7222L9.62754 14.7145C9.66296 14.709 9.69907 14.7027 9.73448 14.6958L9.79559 14.6882C9.83032 14.6784 9.86434 14.668 9.89837 14.6569L9.91435 14.6458L9.92962 14.6333L9.86921 14.6104L9.83032 14.6034L9.79212 14.5951L9.61712 14.5722L9.57129 14.5611L9.52893 14.5527L9.4449 14.5229L9.40601 14.5034L9.37476 14.4812L9.34421 14.4541L9.32129 14.4201L9.32962 14.4159L9.34421 14.4118H9.36365L9.39421 14.4159L9.53935 14.4236L9.62407 14.4319H9.73032L9.76018 14.4277L9.78379 14.4201L9.79907 14.4118C9.72722 14.3825 9.65591 14.3519 9.58518 14.3201C9.53837 14.2963 9.49114 14.2734 9.44351 14.2513L9.29907 14.1757L9.23032 14.1333C9.18797 14.1034 9.14607 14.0728 9.10462 14.0416L9.05115 13.9958L9.02754 13.9694L9.00393 13.9465L8.98934 13.9236L8.97337 13.8965L8.95809 13.8743L8.94976 13.8479L8.94351 13.7986H8.96921L8.99976 13.802L9.03032 13.8145L9.06087 13.8257L9.12129 13.8638L9.19004 13.902L9.22059 13.9215L9.25462 13.9395L9.28865 13.9548L9.31921 13.9666L9.35323 13.975L9.38379 13.9784H9.41851L9.44837 13.9666L9.35809 13.8972C9.2833 13.8351 9.20945 13.7719 9.13657 13.7076C9.0157 13.5925 8.89963 13.4725 8.78865 13.3479L8.74004 13.2833L8.69004 13.2222C8.66263 13.183 8.63577 13.1434 8.60948 13.1034L8.60254 13.0882V13.0618L8.60601 13.05L8.60948 13.0388L8.62129 13.0312L8.6324 13.0194L8.6449 13.0111L8.65948 13.0069L8.67476 13.0041H8.70532L8.72407 13.0069L8.74073 13.0111L8.75532 13.0229C8.83796 13.1048 8.91921 13.1875 8.99907 13.2715C9.08726 13.3562 9.17893 13.4382 9.27407 13.5159L9.36157 13.5722L9.40671 13.5958L9.44907 13.6104L9.41921 13.5916L9.33935 13.5118C9.24143 13.3993 9.14837 13.2826 9.05671 13.1645C9.01633 13.1091 8.97675 13.0531 8.93796 12.9965C8.90336 12.9412 8.8677 12.8865 8.83101 12.8326C8.80192 12.7848 8.77391 12.7365 8.74698 12.6875C8.7315 12.6478 8.71529 12.6085 8.69837 12.5694L8.69351 12.5507V12.5194L8.69837 12.5083L8.71296 12.4854L8.72129 12.477L8.7331 12.4701L8.7824 12.4541H8.83587L8.85115 12.4576L8.86226 12.4618L8.87754 12.4701L8.9199 12.5083L9.01921 12.6347C9.09698 12.7541 9.17893 12.8708 9.26365 12.9854L9.35393 13.1L9.40393 13.1493L9.4574 13.1951C9.39657 13.0797 9.33823 12.963 9.2824 12.8451C9.25877 12.7908 9.23585 12.7361 9.21365 12.6812L9.18309 12.5972C9.16696 12.5393 9.14912 12.4818 9.12962 12.425L9.11087 12.3409L9.09698 12.2555L9.08865 12.1757L9.08518 12.1L9.08865 12.0618L9.09351 12.027L9.09698 11.9923L9.10462 11.9583L9.11226 11.9458L9.11643 11.9347L9.12754 11.9222L9.13518 11.9152L9.16157 11.9034L9.18865 11.8965H9.21504L9.23796 11.9007L9.24907 11.9034L9.2574 11.9076L9.26157 11.9159L9.26573 11.927C9.33101 12.1402 9.38448 12.3569 9.44073 12.5729C9.46296 12.6333 9.48587 12.693 9.51018 12.752L9.53657 12.809L9.56712 12.8625L9.60115 12.9159L9.57893 12.8048C9.57021 12.7414 9.56002 12.6782 9.54837 12.6152C9.54074 12.5415 9.53449 12.4677 9.52962 12.3937L9.53726 12.2944L9.5449 12.2555L9.55671 12.2257L9.57198 12.2027L9.57962 12.1944L9.59073 12.1868L9.60184 12.1833H9.63657L9.66782 12.1944L9.69768 12.2097L9.75115 12.45C9.77059 12.5229 9.79212 12.5958 9.81573 12.6673C9.85462 12.7763 9.89698 12.8847 9.94212 12.9916L9.9956 13.102L10.072 13.2479L10.1553 13.3923L10.2477 13.5298L10.3463 13.6666L10.4387 13.7812C10.5025 13.8534 10.5671 13.925 10.6331 13.9951C10.7018 14.0625 10.772 14.1284 10.8435 14.193L10.9539 14.2854C11.0553 14.3645 11.1595 14.4395 11.2671 14.5104C11.3512 14.5604 11.4366 14.609 11.5227 14.6555L11.7852 14.7819C11.9185 14.8347 12.0532 14.8833 12.1893 14.9263C12.3227 14.9618 12.4581 14.9923 12.5942 15.018C12.7768 15.0472 12.9643 15.0645 13.1525 15.0722Z" fill="#FFCC4D"/>
<path d="M2.40093 19.8069C2.40093 19.8069 2.23635 19.9437 2.18079 19.875C2.09121 19.7639 2.45649 19.209 2.45649 19.0132C2.45649 18.6931 2.24191 18.6042 1.97802 18.559C1.80024 18.5285 1.51204 18.5722 1.51204 18.5722C1.56621 18.6451 1.60163 18.6681 1.69329 18.6722C1.63013 18.7054 1.57746 18.7556 1.54116 18.817C1.50486 18.8785 1.48636 18.9488 1.48774 19.0201C1.48774 19.2951 1.60163 19.409 1.60163 19.7208C1.60163 19.8937 1.45996 20.1132 1.45996 20.1132C1.70996 20.0882 1.83496 19.8569 1.76413 19.6708C1.78326 19.6673 1.80298 19.6684 1.8216 19.674C1.84022 19.6797 1.85719 19.6898 1.87107 19.7035C1.88913 19.6528 1.86066 19.5924 1.82177 19.5417C1.85302 19.5257 1.87593 19.5354 1.92524 19.5451C1.92038 19.4924 1.88843 19.4368 1.81135 19.384C2.03635 19.4417 2.17454 19.2854 2.17454 19.1215C2.17454 18.9965 2.08774 18.9076 2.00232 18.9076C1.96997 18.9087 1.93852 18.9185 1.91135 18.9361C1.89538 18.9028 1.90371 18.8569 1.91968 18.8229C1.85788 18.8389 1.81829 18.8757 1.84677 18.9535C1.82559 18.9538 1.80471 18.9586 1.78546 18.9674C1.76621 18.9763 1.74902 18.989 1.73496 19.0049C1.74825 19.0215 1.76533 19.0348 1.78478 19.0435C1.80424 19.0522 1.82549 19.0561 1.84677 19.0549C1.81204 19.1271 1.85093 19.1681 1.90718 19.2C1.90718 19.2 1.87107 19.0549 1.96343 19.0549C2.0051 19.0549 2.0426 19.0694 2.0426 19.1299C2.0426 19.1819 1.99607 19.2556 1.88913 19.2514C1.78149 19.2465 1.69468 19.1771 1.69468 19.0069C1.69468 18.8479 1.82177 18.7694 1.98913 18.7646C2.14052 18.7597 2.25441 18.8417 2.25441 18.9979C2.25441 19.2049 1.95441 19.6785 1.95441 19.8632C1.95441 20.0021 2.07871 20.0792 2.20093 20.0792C2.35927 20.0792 2.4926 19.9222 2.4926 19.9222L2.40093 19.8069ZM2.36621 16.0556C2.36621 15.7097 2.67732 15.5312 2.92177 15.5312C3.25093 15.5312 3.42663 15.7285 3.42663 15.9854C3.42663 16.1326 3.39954 16.2243 3.33218 16.3639L2.57732 17.9312C2.54969 17.9971 2.53758 18.0683 2.54191 18.1396C2.54191 18.2799 2.67871 18.3951 2.82177 18.3986C2.95163 18.4021 3.09399 18.2771 3.09399 18.1347C3.09399 17.9618 3.0051 17.8854 2.91274 17.8854C2.79954 17.8854 2.75441 17.9312 2.75441 18.0111C2.75441 18.0674 2.78149 18.091 2.81968 18.091C2.91691 18.091 2.88982 17.9604 2.88982 17.9604C2.90276 17.9631 2.91495 17.9686 2.92552 17.9765C2.9361 17.9845 2.94481 17.9946 2.95104 18.0063C2.95726 18.0179 2.96085 18.0308 2.96156 18.044C2.96226 18.0572 2.96005 18.0704 2.9551 18.0826C2.99147 18.0903 3.02437 18.1095 3.04885 18.1375C3.02384 18.1641 2.99101 18.1821 2.9551 18.1889C2.97802 18.2639 2.94746 18.3007 2.88218 18.3167C2.89344 18.2914 2.89659 18.2632 2.89121 18.2361C2.78774 18.2653 2.62941 18.2194 2.62941 18.0403C2.62941 17.8625 2.75232 17.7132 2.98357 17.75C2.92802 17.725 2.90093 17.6715 2.89538 17.6104C2.93704 17.6278 2.98357 17.6299 2.98357 17.6299C2.95649 17.5826 2.91899 17.5417 2.92038 17.4472C2.96343 17.4674 3.00302 17.5028 3.05788 17.4799C2.97177 17.3111 3.07732 17.0792 3.34677 17.0229C3.2553 17.1224 3.20321 17.2517 3.20024 17.3868C3.20024 17.7896 3.31274 17.8562 3.31274 18.1354C3.31088 18.2005 3.29368 18.2642 3.26255 18.3214C3.23141 18.3786 3.18723 18.4277 3.13357 18.4646V18.4597C3.21135 18.4806 3.26204 18.5201 3.29121 18.5722C3.11135 18.6229 2.84954 18.6222 2.70996 18.5674C2.64669 18.5582 2.58625 18.5351 2.53304 18.4996C2.47983 18.4642 2.43517 18.4173 2.40232 18.3625C2.36838 18.2843 2.35086 18.1999 2.35086 18.1146C2.35086 18.0293 2.36838 17.9449 2.40232 17.8667C2.50927 17.6437 3.01343 16.575 3.17038 16.2382C3.205 16.1667 3.22326 16.0884 3.22385 16.009C3.22385 15.8042 3.03566 15.7319 2.92871 15.7319C2.80024 15.7319 2.66968 15.8306 2.66968 15.9514C2.66968 16.0292 2.71204 16.075 2.77177 16.075C2.91691 16.075 2.90788 15.9521 2.87871 15.8743C2.96829 15.916 3.02107 15.9868 3.00649 16.0632C3.05788 16.0701 3.10649 16.0944 3.15093 16.1444C3.11552 16.1903 3.07246 16.2236 3.00649 16.2243C3.03566 16.3424 2.95649 16.3924 2.87871 16.4194C2.90302 16.3333 2.91899 16.2326 2.77177 16.2326C2.66413 16.2326 2.57941 16.2139 2.5301 16.1437C2.52663 16.2375 2.5176 16.6056 2.5176 16.6056C2.51204 16.7444 2.70302 16.7403 2.82454 16.6993C2.77802 16.859 2.68427 16.9458 2.46552 16.9236C2.49902 16.9365 2.52763 16.9596 2.54731 16.9896C2.567 17.0197 2.57677 17.0551 2.57524 17.091C2.57524 17.2215 2.46968 17.3653 2.40093 17.4083L2.36621 16.0556Z" fill="#FFCC4D"/>
<path d="M2.43444 16.0555C2.43444 15.7097 2.12333 15.5312 1.87888 15.5312C1.54972 15.5312 1.37402 15.7284 1.37402 15.9854C1.37402 16.1326 1.40111 16.2243 1.46847 16.3638L2.22333 17.9312C2.25072 17.9971 2.2626 18.0684 2.25805 18.1395C2.25805 18.2798 2.12125 18.3951 1.97888 18.3986C1.84833 18.402 1.70666 18.277 1.70666 18.1347C1.70666 17.9618 1.79555 17.8854 1.88791 17.8854C2.00111 17.8854 2.04625 17.9312 2.04625 18.0111C2.04625 18.0673 2.01916 18.0909 1.98097 18.0909C1.88375 18.0909 1.91083 17.9604 1.91083 17.9604C1.89789 17.9631 1.8857 17.9686 1.87513 17.9765C1.86455 17.9844 1.85584 17.9946 1.84961 18.0062C1.84339 18.0179 1.8398 18.0308 1.8391 18.044C1.83839 18.0572 1.8406 18.0703 1.84555 18.0826C1.80918 18.0902 1.77628 18.1095 1.7518 18.1375C1.77681 18.1641 1.80964 18.1821 1.84555 18.1888C1.82333 18.2638 1.85388 18.3007 1.91916 18.3159C1.90791 18.2907 1.90476 18.2625 1.91013 18.2354C2.01361 18.2645 2.17194 18.2187 2.17194 18.0395C2.17194 17.8618 2.04902 17.7125 1.81847 17.7493C1.87333 17.7243 1.90111 17.6708 1.90597 17.6097C1.87797 17.6206 1.84846 17.6272 1.81847 17.6291C1.84486 17.5819 1.88236 17.5409 1.88097 17.4465C1.83791 17.4666 1.79902 17.502 1.74347 17.4791C1.82958 17.3104 1.72402 17.0784 1.45458 17.0222C1.54605 17.1216 1.59814 17.251 1.60111 17.3861C1.60111 17.7888 1.4893 17.8555 1.4893 18.1347C1.4893 18.2513 1.54972 18.3784 1.66847 18.4638V18.459C1.63578 18.4656 1.60485 18.4791 1.5777 18.4985C1.55054 18.5179 1.52776 18.5427 1.51083 18.5715C1.69069 18.6222 1.9518 18.6215 2.09208 18.5666C2.15535 18.5575 2.21579 18.5343 2.269 18.4989C2.32221 18.4634 2.36687 18.4166 2.39972 18.3618C2.43366 18.2835 2.45118 18.1991 2.45118 18.1138C2.45118 18.0286 2.43366 17.9442 2.39972 17.8659C2.29277 17.643 1.78861 16.5743 1.63166 16.2375C1.59704 16.166 1.57878 16.0877 1.57819 16.0083C1.57819 15.8034 1.76638 15.7312 1.87333 15.7312C2.0018 15.7312 2.13236 15.8298 2.13236 15.9507C2.13236 16.0284 2.09 16.0743 2.03027 16.0743C1.88513 16.0743 1.89416 15.9513 1.92263 15.8736C1.83305 15.9152 1.78027 15.9861 1.79486 16.0625C1.73841 16.071 1.68704 16.0999 1.65041 16.1437C1.68583 16.1895 1.72888 16.2229 1.79486 16.2236C1.76569 16.3416 1.84486 16.3916 1.92263 16.4187C1.89833 16.3326 1.88236 16.2319 2.03027 16.2319C2.13791 16.2319 2.22263 16.2132 2.27194 16.143L2.28444 16.6048C2.29 16.7437 2.09833 16.7395 1.9768 16.6986C2.02263 16.8576 2.11708 16.9444 2.33513 16.9222C2.30163 16.9351 2.27302 16.9582 2.25334 16.9882C2.23365 17.0182 2.22389 17.0537 2.22541 17.0895C2.22541 17.2201 2.33027 17.3638 2.39972 17.4069L2.43444 16.0555ZM2.40041 19.8069C2.40041 19.8069 2.565 19.9437 2.62055 19.875C2.71013 19.7638 2.34486 19.209 2.34486 19.0132C2.34486 18.693 2.55944 18.6041 2.82333 18.559C3.00111 18.5284 3.29 18.5722 3.29 18.5722C3.23513 18.6451 3.20041 18.668 3.10875 18.6722C3.17185 18.7055 3.22448 18.7556 3.26078 18.817C3.29707 18.8785 3.3156 18.9488 3.3143 19.0201C3.3143 19.2951 3.20041 19.409 3.20041 19.7208C3.20041 19.8937 3.34208 20.1131 3.34208 20.1131C3.09208 20.0882 2.96708 19.8569 3.03791 19.6708C3.01878 19.6673 2.99909 19.6685 2.98049 19.6742C2.96189 19.6798 2.94491 19.6899 2.93097 19.7034C2.91291 19.6527 2.94208 19.5923 2.98027 19.5416C2.94902 19.5257 2.92611 19.5354 2.8768 19.5451C2.88166 19.4923 2.91291 19.4368 2.99069 19.384C2.76569 19.4416 2.6275 19.2854 2.6275 19.1215C2.6275 18.9965 2.7143 18.9076 2.79972 18.9076C2.8275 18.9076 2.86777 18.9194 2.89069 18.9361C2.90666 18.9027 2.89833 18.8569 2.88166 18.8229C2.94416 18.8388 2.98305 18.8757 2.95527 18.9534C2.97645 18.9538 2.99731 18.9586 3.01655 18.9674C3.03579 18.9763 3.053 18.989 3.06708 19.0048C3.05379 19.0215 3.03671 19.0347 3.01726 19.0434C2.9978 19.0521 2.97655 19.056 2.95527 19.0548C2.99 19.127 2.95111 19.168 2.89486 19.2C2.89486 19.2 2.93097 19.0548 2.83861 19.0548C2.79694 19.0548 2.75944 19.0694 2.75944 19.1298C2.75944 19.1819 2.80597 19.2555 2.91291 19.2513C3.01986 19.2465 3.10666 19.177 3.10666 19.0069C3.10666 18.8479 2.97958 18.7694 2.81222 18.7645C2.66083 18.7597 2.54694 18.8416 2.54694 18.9979C2.54694 19.2048 2.84694 19.6784 2.84694 19.8632C2.84694 20.002 2.72263 20.0791 2.60041 20.0791C2.44208 20.0791 2.30875 19.9222 2.30875 19.9222L2.40041 19.8069ZM2.36569 9.98398C2.36569 9.63676 2.6768 9.45898 2.92125 9.45898C3.25041 9.45898 3.42611 9.65621 3.42611 9.91385C3.42611 10.0604 3.39902 10.152 3.33166 10.2916L2.5768 11.8597C2.54913 11.9252 2.53701 11.9963 2.54138 12.0673C2.54138 12.2083 2.67819 12.3229 2.82125 12.327C2.95111 12.3298 3.09347 12.2048 3.09347 12.0632C3.09347 11.8909 3.00458 11.8138 2.91222 11.8138C2.79902 11.8138 2.75388 11.8604 2.75388 11.9402C2.75388 11.9951 2.78097 12.0194 2.81916 12.0194C2.91638 12.0194 2.8893 11.8888 2.8893 11.8888C2.90213 11.8915 2.91422 11.8969 2.92473 11.9047C2.93525 11.9125 2.94392 11.9225 2.95014 11.934C2.95636 11.9455 2.95999 11.9583 2.96075 11.9714C2.96152 11.9844 2.95941 11.9975 2.95458 12.0097C2.99098 12.0177 3.02385 12.0371 3.04833 12.0652C3.02321 12.0919 2.99046 12.1101 2.95458 12.1173C2.9775 12.1923 2.94694 12.2284 2.88166 12.2444C2.89296 12.2191 2.89611 12.191 2.89069 12.1638C2.78722 12.193 2.62888 12.1472 2.62888 11.968C2.62888 11.7909 2.7518 11.6416 2.98305 11.6784C2.9275 11.652 2.90041 11.5986 2.89486 11.5388C2.93652 11.5555 2.98305 11.5569 2.98305 11.5569C2.95597 11.5097 2.91847 11.4687 2.91986 11.375C2.96291 11.3944 3.0025 11.4305 3.05736 11.4076C2.97125 11.2382 3.0768 11.0055 3.34625 10.9507C3.255 11.0502 3.20294 11.1795 3.19972 11.3145C3.19972 11.7166 3.31222 11.784 3.31222 12.0638C3.31222 12.1805 3.2518 12.3069 3.13305 12.393V12.3882C3.20944 12.409 3.25944 12.4472 3.2893 12.5C3.10944 12.5513 2.84763 12.55 2.70805 12.4951C2.64483 12.4858 2.58445 12.4626 2.53125 12.4272C2.47806 12.3917 2.43338 12.345 2.40041 12.2902C2.36646 12.2122 2.34894 12.1281 2.34894 12.043C2.34894 11.9579 2.36646 11.8738 2.40041 11.7958C2.50736 11.5722 3.01152 10.5034 3.16847 10.1666C3.20272 10.095 3.22097 10.0168 3.22194 9.93746C3.22194 9.7319 3.03375 9.65968 2.9268 9.65968C2.79833 9.65968 2.66777 9.7576 2.66777 9.87843C2.66777 9.95621 2.71013 10.0027 2.76986 10.0027C2.915 10.0027 2.90597 9.87912 2.8768 9.80204C2.96638 9.84232 3.01916 9.91454 3.00458 9.99093C3.05597 9.99787 3.10458 10.0215 3.14902 10.0729C3.11361 10.1173 3.07055 10.1507 3.00458 10.152C3.03375 10.2708 2.95458 10.3208 2.8768 10.3479C2.90111 10.2618 2.91708 10.1618 2.76986 10.1618C2.66222 10.1618 2.5775 10.143 2.52819 10.0736C2.52472 10.1666 2.51569 10.5354 2.51569 10.5354C2.51013 10.6736 2.70111 10.6701 2.82263 10.6284C2.7775 10.7882 2.68375 10.8743 2.465 10.852C2.49855 10.8651 2.52719 10.8883 2.54687 10.9184C2.56655 10.9486 2.57629 10.9841 2.57472 11.0201C2.57472 11.15 2.46916 11.2944 2.40041 11.3368L2.36569 9.98398Z" fill="#FFCC4D"/>
<path d="M2.43444 9.98398C2.43444 9.63676 2.12333 9.45898 1.87888 9.45898C1.54972 9.45898 1.37402 9.65621 1.37402 9.91385C1.37402 10.0604 1.40111 10.152 1.46847 10.2916L2.22333 11.8597C2.24972 11.9145 2.25805 11.9763 2.25805 12.0673C2.25805 12.2083 2.12125 12.3229 1.97888 12.327C1.84833 12.3298 1.70666 12.2048 1.70666 12.0632C1.70666 11.8909 1.79555 11.8138 1.88791 11.8138C2.00111 11.8138 2.04625 11.8604 2.04625 11.9402C2.04625 11.9951 2.01916 12.0194 1.98097 12.0194C1.88375 12.0194 1.91083 11.8888 1.91083 11.8888C1.89794 11.8914 1.88577 11.8967 1.87519 11.9045C1.86461 11.9123 1.85589 11.9223 1.84964 11.9338C1.8434 11.9454 1.8398 11.9582 1.83909 11.9713C1.83838 11.9844 1.84059 11.9975 1.84555 12.0097C1.80915 12.0177 1.77628 12.0371 1.7518 12.0652C1.77692 12.0919 1.80967 12.1101 1.84555 12.1173C1.82333 12.1923 1.85319 12.2284 1.91847 12.2444C1.90717 12.2191 1.90402 12.191 1.90944 12.1638C2.01291 12.193 2.17125 12.1472 2.17125 11.968C2.17125 11.7909 2.04833 11.6416 1.81777 11.6784C1.87263 11.652 1.90041 11.5986 1.90527 11.5388C1.86361 11.5555 1.81777 11.5569 1.81777 11.5569C1.84416 11.5097 1.88166 11.4687 1.88027 11.375C1.83722 11.3944 1.79833 11.4305 1.74277 11.4076C1.82888 11.2382 1.72333 11.0055 1.45388 10.9507C1.54513 11.0502 1.59719 11.1795 1.60041 11.3145C1.60041 11.7166 1.48861 11.784 1.48861 12.0638C1.48861 12.1805 1.54902 12.3069 1.66777 12.393V12.3882C1.59069 12.409 1.54 12.4472 1.51152 12.5C1.69138 12.5513 1.9525 12.55 2.09277 12.4951C2.156 12.4858 2.21638 12.4626 2.26957 12.4272C2.32276 12.3917 2.36745 12.345 2.40041 12.2902C2.43436 12.2122 2.45188 12.1281 2.45188 12.043C2.45188 11.9579 2.43436 11.8738 2.40041 11.7958C2.29347 11.5722 1.7893 10.5034 1.63236 10.1666C1.59779 10.0954 1.57953 10.0173 1.57888 9.93815C1.57888 9.7326 1.76708 9.66037 1.87402 9.66037C2.0025 9.66037 2.13305 9.75829 2.13305 9.87912C2.13305 9.9569 2.09069 10.0034 2.03097 10.0034C1.88583 10.0034 1.89486 9.87982 1.92333 9.80273C1.83375 9.84301 1.78097 9.91523 1.79555 9.99162C1.73885 9.99992 1.68732 10.0292 1.65111 10.0736C1.68652 10.118 1.72958 10.1513 1.79555 10.1527C1.76638 10.2715 1.84555 10.3215 1.92333 10.3486C1.89902 10.2625 1.88305 10.1625 2.03097 10.1625C2.13861 10.1625 2.22333 10.1437 2.27263 10.0743L2.28444 10.5347C2.29 10.6729 2.09833 10.6694 1.9768 10.6277C2.02263 10.7875 2.11708 10.8736 2.33513 10.852C2.30158 10.8651 2.27294 10.8883 2.25326 10.9184C2.23358 10.9486 2.22384 10.9841 2.22541 11.0201C2.22541 11.15 2.33027 11.2944 2.39972 11.3368L2.43444 9.98398Z" fill="#FFCC4D"/>
<path d="M2.4345 8.9437C2.4345 9.29023 2.12339 9.4687 1.87895 9.4687C1.54978 9.4687 1.37409 9.27148 1.37409 9.01314C1.37409 8.86731 1.40117 8.77564 1.46853 8.63536L2.22339 7.06731C2.25077 7.00169 2.26265 6.93063 2.25811 6.85967C2.25811 6.71939 2.12131 6.60411 1.97895 6.60064C1.84839 6.59786 1.70672 6.72217 1.70672 6.86453C1.70672 7.03745 1.79561 7.11384 1.88797 7.11384C2.00117 7.11384 2.04631 7.06731 2.04631 6.98745C2.04631 6.93189 2.01922 6.90828 1.98103 6.90828C1.88381 6.90828 1.91089 7.03884 1.91089 7.03884C1.89798 7.03623 1.8858 7.03081 1.87522 7.02296C1.86464 7.01511 1.85593 7.00502 1.84969 6.99341C1.84346 6.98181 1.83986 6.96897 1.83916 6.95582C1.83845 6.94266 1.84066 6.92951 1.84561 6.91731C1.80906 6.91016 1.776 6.89082 1.75186 6.86245C1.77721 6.83625 1.80989 6.81833 1.84561 6.81106C1.82339 6.73606 1.85395 6.69995 1.91922 6.68398C1.90793 6.70924 1.90477 6.73739 1.9102 6.76453C2.01367 6.73536 2.172 6.78259 2.172 6.96036C2.172 7.13745 2.04909 7.28675 1.81853 7.24995C1.87339 7.27634 1.90117 7.32981 1.90603 7.38953C1.87785 7.37944 1.8484 7.37337 1.81853 7.37148C1.84492 7.4187 1.88242 7.45967 1.88103 7.55342C1.83797 7.53398 1.79909 7.49786 1.74353 7.52078C1.82964 7.69023 1.72409 7.92286 1.45464 7.97842C1.54588 7.87856 1.59793 7.74907 1.60117 7.61384C1.60117 7.21245 1.48936 7.14439 1.48936 6.86523C1.48936 6.74856 1.54978 6.62217 1.66853 6.53606V6.54092C1.63592 6.53404 1.60511 6.52042 1.57808 6.50093C1.55105 6.48143 1.5284 6.4565 1.51159 6.42773C1.69145 6.37703 1.95256 6.37773 2.09284 6.43328C2.15617 6.44252 2.21664 6.46577 2.26986 6.50133C2.32308 6.53689 2.3677 6.58386 2.40047 6.63884C2.43447 6.71683 2.45201 6.80099 2.45201 6.88606C2.45201 6.97113 2.43447 7.05529 2.40047 7.13328C2.29353 7.35689 1.78936 8.42564 1.63242 8.76175C1.59779 8.83297 1.57952 8.91103 1.57895 8.99023C1.57895 9.19648 1.76714 9.268 1.87409 9.268C2.00256 9.268 2.13311 9.17009 2.13311 9.04856C2.13311 8.97148 2.09075 8.92425 2.03103 8.92425C1.88589 8.92425 1.89492 9.04717 1.92339 9.12495C1.83381 9.08467 1.78103 9.01245 1.79561 8.93606C1.739 8.92751 1.68755 8.89832 1.65117 8.85411C1.68659 8.80967 1.72964 8.77564 1.79561 8.77495C1.76645 8.65689 1.84561 8.6062 1.92339 8.57842C1.89909 8.66523 1.88311 8.76592 2.03103 8.76592C2.13867 8.76592 2.22339 8.78398 2.2727 8.85411L2.2852 8.39161C2.29075 8.25342 2.09909 8.25759 1.97756 8.29856C2.02339 8.13884 2.11784 8.05273 2.33589 8.07425C2.30233 8.06122 2.2737 8.038 2.25402 8.00786C2.23434 7.97772 2.2246 7.94216 2.22617 7.9062C2.22617 7.77634 2.33103 7.63189 2.40047 7.58953L2.4345 8.9437ZM2.4345 15.0159C2.4345 15.3624 2.12339 15.5402 1.87895 15.5402C1.54978 15.5402 1.37409 15.3437 1.37409 15.0861C1.3724 14.9541 1.40494 14.8239 1.46853 14.7083L2.22339 13.1402C2.25077 13.0746 2.26265 13.0035 2.25811 12.9326C2.25811 12.7916 2.12131 12.677 1.97895 12.6736C1.84839 12.6701 1.70672 12.7951 1.70672 12.9368C1.70672 13.109 1.79561 13.1861 1.88797 13.1861C2.00117 13.1861 2.04631 13.1395 2.04631 13.0597C2.04631 13.0048 2.01922 12.9812 1.98103 12.9812C1.88381 12.9812 1.91089 13.1118 1.91089 13.1118C1.89804 13.109 1.88594 13.1035 1.87543 13.0957C1.86491 13.0878 1.85625 13.0777 1.85003 13.0661C1.84382 13.0546 1.8402 13.0418 1.83944 13.0287C1.83868 13.0156 1.84078 13.0024 1.84561 12.9902C1.80898 12.9828 1.77593 12.9633 1.75186 12.9347C1.77704 12.9083 1.8098 12.8903 1.84561 12.8833C1.82339 12.8076 1.85325 12.7715 1.91853 12.7555C1.90723 12.7808 1.90408 12.8089 1.9095 12.8361C2.01297 12.8069 2.17131 12.8534 2.17131 13.0319C2.17131 13.209 2.04839 13.3576 1.81784 13.3215C1.8727 13.3486 1.90047 13.4013 1.90534 13.4618C1.86367 13.4458 1.81784 13.443 1.81784 13.443C1.84422 13.4902 1.88172 13.5319 1.88034 13.6249C1.83728 13.6055 1.79839 13.5694 1.74284 13.5923C1.82895 13.7611 1.72339 13.9951 1.45395 14.0493C1.5453 13.9497 1.59738 13.8204 1.60047 13.6854C1.60047 13.2847 1.48867 13.2159 1.48867 12.9368C1.48867 12.8194 1.54909 12.693 1.66784 12.6076V12.6118C1.59075 12.5916 1.54006 12.5534 1.51159 12.4999C1.69145 12.4493 1.95256 12.4499 2.09284 12.5055C2.15606 12.5148 2.21644 12.538 2.26963 12.5734C2.32282 12.6089 2.36751 12.6556 2.40047 12.7104C2.43442 12.7884 2.45195 12.8725 2.45195 12.9576C2.45195 13.0427 2.43442 13.1268 2.40047 13.2048C2.29353 13.4284 1.78936 14.4972 1.63242 14.834C1.5977 14.9052 1.57942 14.9832 1.57895 15.0624C1.57895 15.268 1.76714 15.3395 1.87409 15.3395C2.00256 15.3395 2.13311 15.2416 2.13311 15.1201C2.13311 15.0444 2.09075 14.9972 2.03103 14.9972C1.88589 14.9972 1.89492 15.1201 1.92339 15.1972C1.83381 15.1569 1.78103 15.084 1.79561 15.0083C1.73895 15.0004 1.68736 14.9713 1.65117 14.927C1.66763 14.9037 1.68919 14.8843 1.71421 14.8705C1.73923 14.8567 1.76706 14.8487 1.79561 14.8472C1.76645 14.7291 1.84561 14.6798 1.92339 14.652C1.89909 14.7388 1.88311 14.8388 2.03103 14.8388C2.13867 14.8388 2.22339 14.8569 2.2727 14.9277L2.2852 14.4652C2.29075 14.3277 2.09909 14.3312 1.97756 14.3722C2.02339 14.2131 2.11784 14.127 2.33589 14.1486C2.30233 14.1355 2.2737 14.1123 2.25402 14.0822C2.23434 14.052 2.2246 14.0165 2.22617 13.9805C2.22617 13.8506 2.33103 13.7069 2.40047 13.6638L2.4345 15.0159Z" fill="#FFCC4D"/>
<path d="M2.36623 15.0159C2.36623 15.3624 2.67734 15.5402 2.92179 15.5402C3.25095 15.5402 3.42665 15.3437 3.42665 15.086C3.42833 14.9541 3.39579 14.8239 3.3322 14.7082L2.57734 13.1402C2.54968 13.0746 2.53755 13.0036 2.54193 12.9326C2.54193 12.7916 2.67873 12.677 2.82179 12.6735C2.95165 12.6701 3.09401 12.7951 3.09401 12.9367C3.09401 13.1089 3.00512 13.186 2.91276 13.186C2.79957 13.186 2.75443 13.1395 2.75443 13.0596C2.75443 13.0048 2.78151 12.9812 2.8197 12.9812C2.91693 12.9812 2.88984 13.1117 2.88984 13.1117C2.90269 13.109 2.9148 13.1035 2.92531 13.0956C2.93582 13.0878 2.94449 13.0777 2.9507 13.0661C2.95692 13.0545 2.96053 13.0418 2.9613 13.0286C2.96206 13.0155 2.95995 13.0024 2.95512 12.9902C2.99175 12.9828 3.0248 12.9632 3.04887 12.9346C3.02369 12.9082 2.99094 12.8903 2.95512 12.8832C2.97804 12.8076 2.94748 12.7714 2.8822 12.7555C2.8954 12.7846 2.8954 12.811 2.89123 12.836C2.78776 12.8069 2.62943 12.8534 2.62943 13.0319C2.62943 13.2089 2.75234 13.3576 2.98359 13.3214C2.92804 13.3485 2.90095 13.4013 2.8954 13.4617C2.93707 13.4457 2.98359 13.443 2.98359 13.443C2.95651 13.4902 2.91901 13.5319 2.9204 13.6249C2.96345 13.6055 3.00304 13.5694 3.0579 13.5923C2.97179 13.761 3.07734 13.9951 3.34679 14.0492C3.25543 13.9497 3.20336 13.8204 3.20026 13.6853C3.20026 13.2846 3.31276 13.2159 3.31276 12.9367C3.31101 12.8716 3.29386 12.8078 3.26272 12.7506C3.23158 12.6934 3.18733 12.6444 3.13359 12.6076V12.6117C3.16631 12.6051 3.19727 12.5917 3.22444 12.5723C3.25161 12.5529 3.27437 12.528 3.29123 12.4992C3.11137 12.4485 2.84957 12.4492 2.70998 12.5048C2.64676 12.5141 2.58638 12.5373 2.53319 12.5727C2.47999 12.6081 2.43531 12.6549 2.40234 12.7096C2.36839 12.7876 2.35087 12.8718 2.35087 12.9569C2.35087 13.0419 2.36839 13.1261 2.40234 13.2041C2.50929 13.4277 3.01345 14.4964 3.1704 14.8332C3.20373 14.9041 3.22387 14.9791 3.22387 15.0617C3.22387 15.2673 3.03568 15.3388 2.92873 15.3388C2.80026 15.3388 2.6697 15.2409 2.6697 15.1194C2.6697 15.0437 2.71207 14.9964 2.77179 14.9964C2.91693 14.9964 2.9079 15.1194 2.87873 15.1964C2.96832 15.1562 3.02109 15.0832 3.00651 15.0076C3.06327 14.9999 3.11494 14.9708 3.15095 14.9263C3.13449 14.9029 3.11294 14.8836 3.08792 14.8698C3.0629 14.8559 3.03506 14.848 3.00651 14.8464C3.03568 14.7284 2.95651 14.6791 2.87873 14.6513C2.90304 14.7381 2.91901 14.8381 2.77179 14.8381C2.66415 14.8381 2.57943 14.8562 2.53012 14.927C2.52665 14.8339 2.51762 14.4645 2.51762 14.4645C2.51207 14.327 2.70304 14.3305 2.82457 14.3714C2.77804 14.2124 2.68429 14.1263 2.46554 14.1478C2.4991 14.1348 2.52773 14.1116 2.54741 14.0814C2.56709 14.0513 2.57683 14.0157 2.57526 13.9798C2.57526 13.8499 2.4697 13.7062 2.40095 13.6631L2.36623 15.0159ZM2.40095 5.19366C2.40095 5.19366 2.56554 5.05547 2.62109 5.12422C2.71068 5.23602 2.3454 5.79089 2.3454 5.98672C2.3454 6.30755 2.55998 6.39436 2.82387 6.44019C3.00165 6.47144 3.29054 6.42769 3.29054 6.42769C3.23498 6.35477 3.20026 6.33325 3.10859 6.32769C3.17175 6.29483 3.22446 6.24497 3.26078 6.18374C3.2971 6.12251 3.31559 6.05234 3.31415 5.98116C3.31415 5.70477 3.20026 5.59089 3.20026 5.27977C3.20026 5.10686 3.34193 4.88672 3.34193 4.88672C3.09193 4.91241 2.96693 5.14366 3.03776 5.32908C3.01873 5.3326 2.99913 5.33147 2.98063 5.32579C2.96213 5.3201 2.94528 5.31004 2.93151 5.29644C2.91346 5.34783 2.94262 5.40755 2.98082 5.45894C2.94957 5.47561 2.92665 5.46519 2.87734 5.45477C2.8822 5.50825 2.91345 5.5638 2.99123 5.61658C2.76554 5.55825 2.62734 5.71519 2.62734 5.87977C2.62734 6.00408 2.71415 6.09227 2.79957 6.09227C2.82734 6.09227 2.86762 6.08116 2.89054 6.0638C2.90651 6.09783 2.89818 6.14366 2.88151 6.17769C2.94401 6.16172 2.9829 6.12422 2.95512 6.04714C2.9977 6.0454 3.03788 6.02693 3.06693 5.99575C3.05349 5.97903 3.0363 5.96573 3.01675 5.95692C2.9972 5.94811 2.97585 5.94404 2.95443 5.94505C2.98915 5.87283 2.95026 5.83255 2.89401 5.80061C2.89401 5.80061 2.93012 5.94505 2.83776 5.94505C2.79609 5.94505 2.75859 5.93116 2.75859 5.87075C2.75859 5.81797 2.80512 5.74436 2.91207 5.74922C3.01901 5.75339 3.10582 5.82283 3.10582 5.99436C3.10582 6.152 2.97873 6.22977 2.81137 6.23533C2.66068 6.2395 2.54679 6.15755 2.54679 6.002C2.54679 5.79436 2.84679 5.32214 2.84679 5.13672C2.84679 4.99783 2.72248 4.92005 2.60026 4.92005C2.44193 4.92005 2.30859 5.077 2.30859 5.077L2.40095 5.19366Z" fill="#FFCC4D"/>
<path d="M2.40065 5.19366C2.40065 5.19366 2.23607 5.05547 2.18051 5.12422C2.09023 5.23672 2.45621 5.79158 2.45621 5.98741C2.45621 6.30825 2.24162 6.39505 1.97773 6.44089C1.79996 6.47144 1.51176 6.42769 1.51176 6.42769C1.56593 6.35477 1.60135 6.33325 1.69301 6.32769C1.62968 6.29499 1.57678 6.24518 1.54032 6.18393C1.50386 6.12268 1.48531 6.05243 1.48676 5.98116C1.48676 5.70477 1.60065 5.59089 1.60065 5.27977C1.60065 5.10686 1.45898 4.88672 1.45898 4.88672C1.70898 4.91241 1.83398 5.14366 1.76315 5.32908C1.78229 5.33248 1.80196 5.3313 1.82055 5.32562C1.83914 5.31995 1.85612 5.30995 1.8701 5.29644C1.88815 5.34783 1.85968 5.40755 1.82079 5.45894C1.85135 5.47561 1.87426 5.46519 1.92426 5.45477C1.9194 5.50825 1.88746 5.5638 1.81037 5.61658C2.03537 5.55825 2.17357 5.71519 2.17357 5.87977C2.17357 6.00408 2.08676 6.09227 2.00135 6.09227C1.96894 6.09157 1.9374 6.0817 1.91037 6.0638C1.8951 6.09852 1.90343 6.14366 1.9194 6.17769C1.8576 6.16172 1.81871 6.12422 1.84648 6.04783C1.82538 6.04708 1.80463 6.04216 1.78543 6.03333C1.76624 6.02451 1.74899 6.01197 1.73468 5.99644C1.74789 5.97961 1.76493 5.96617 1.78437 5.95724C1.80381 5.9483 1.82511 5.94412 1.84648 5.94505C1.81176 5.87283 1.85065 5.83255 1.9069 5.80061C1.9069 5.80061 1.87079 5.94505 1.96315 5.94505C2.00482 5.94505 2.04232 5.93116 2.04232 5.87075C2.04232 5.81797 1.99579 5.74436 1.88885 5.74922C1.78121 5.75339 1.6944 5.82283 1.6944 5.99366C1.6944 6.1513 1.82148 6.22908 1.98885 6.23464C2.14023 6.2388 2.25412 6.15755 2.25412 6.0013C2.25412 5.79366 1.95412 5.32144 1.95412 5.13602C1.95412 4.99714 2.07843 4.91936 2.20065 4.91936C2.35898 4.91936 2.49232 5.0763 2.49232 5.0763L2.40065 5.19366ZM2.36593 8.94366C2.36593 9.29019 2.67704 9.46866 2.92148 9.46866C3.25065 9.46866 3.42635 9.27144 3.42635 9.01311C3.42635 8.86728 3.39926 8.77561 3.3319 8.63533L2.57704 7.06727C2.54986 7.00184 2.53798 6.93106 2.54232 6.86033C2.54232 6.72005 2.67912 6.60477 2.82218 6.6013C2.95204 6.59852 3.0944 6.72283 3.0944 6.86519C3.0944 7.03811 3.00551 7.1145 2.91315 7.1145C2.79996 7.1145 2.75482 7.06797 2.75482 6.98811C2.75482 6.93255 2.7819 6.90894 2.8201 6.90894C2.91732 6.90894 2.89023 7.0395 2.89023 7.0395C2.90309 7.03678 2.91519 7.03129 2.9257 7.02341C2.93621 7.01554 2.94488 7.00546 2.95109 6.99389C2.95731 6.98232 2.96092 6.96953 2.96169 6.95642C2.96245 6.94331 2.96034 6.93018 2.95551 6.91797C2.99181 6.91023 3.02454 6.8907 3.04857 6.86241C3.02304 6.83609 2.99009 6.81817 2.95412 6.81102C2.97704 6.73602 2.94648 6.69991 2.88121 6.68394C2.8944 6.71311 2.8944 6.7395 2.89023 6.7645C2.78676 6.73533 2.62843 6.78186 2.62843 6.96033C2.62843 7.13741 2.75135 7.28672 2.9826 7.24991C2.92704 7.2763 2.89996 7.32977 2.8944 7.3895C2.92281 7.37938 2.9525 7.3733 2.9826 7.37144C2.95551 7.41866 2.91801 7.45964 2.9194 7.55339C2.96246 7.53394 3.00204 7.49783 3.0569 7.52075C2.97079 7.69019 3.07635 7.92283 3.34579 7.97839C3.25455 7.87852 3.2025 7.74903 3.19926 7.6138C3.19926 7.21241 3.31176 7.14436 3.31176 6.86519C3.30984 6.80011 3.29262 6.73639 3.2615 6.67921C3.23037 6.62202 3.18621 6.57297 3.1326 6.53602V6.54089C3.16525 6.5339 3.19611 6.52023 3.22324 6.50076C3.25037 6.48128 3.27317 6.4564 3.29023 6.42769C3.10968 6.37769 2.84787 6.37839 2.7076 6.43394C2.64437 6.44297 2.58398 6.46605 2.53085 6.50151C2.47773 6.53696 2.43324 6.58388 2.40065 6.6388C2.36666 6.71679 2.34912 6.80095 2.34912 6.88602C2.34912 6.9711 2.36666 7.05526 2.40065 7.13325C2.5076 7.35686 3.01176 8.42561 3.16871 8.76172C3.20286 8.83311 3.22111 8.91106 3.22218 8.99019C3.22218 9.19644 3.03398 9.26797 2.92704 9.26797C2.79857 9.26797 2.66801 9.17005 2.66801 9.04852C2.66801 8.97144 2.71037 8.92422 2.7701 8.92422C2.91523 8.92422 2.90621 9.04714 2.87704 9.12491C2.96662 9.08464 3.0194 9.01241 3.00482 8.93603C3.06154 8.9278 3.1131 8.89855 3.14926 8.85408C3.11385 8.80964 3.07079 8.77561 3.00482 8.77491C3.03398 8.65686 2.95482 8.60616 2.87704 8.57839C2.90135 8.66519 2.91732 8.76589 2.7701 8.76589C2.66246 8.76589 2.57773 8.78394 2.52843 8.85408C2.52496 8.76102 2.51593 8.39158 2.51593 8.39158C2.51037 8.25339 2.70135 8.25755 2.82287 8.29852C2.77773 8.14019 2.68398 8.05408 2.46523 8.07561C2.49879 8.06258 2.52743 8.03936 2.54711 8.00922C2.56679 7.97907 2.57653 7.94352 2.57496 7.90755C2.57496 7.77769 2.4694 7.63325 2.40065 7.59089L2.36593 8.94366Z" fill="#FFCC4D"/>
</svg>
